<svg width="12" height="12" viewBox="0 0 12 12" fill="none" xmlns="http://www.w3.org/2000/svg">
<path fill-rule="evenodd" clip-rule="evenodd" d="M10.7112 2.73695C10.8565 2.8764 10.8612 3.10719 10.7217 3.25245L8.27175 5.80453C8.203 5.87614 8.10801 5.91663 8.00874 5.91663C7.90947 5.91663 7.81449 5.87614 7.74573 5.80453L6.25874 4.25558L4.4966 6.09114L5.75206 7.29638L1.70874 8.46871L2.71513 4.38093L3.97059 5.58617L5.99574 3.47664C6.06449 3.40503 6.15947 3.36454 6.25874 3.36454C6.35802 3.36454 6.453 3.40503 6.52175 3.47664L8.00874 5.02559L10.1957 2.74747C10.3352 2.60222 10.566 2.59751 10.7112 2.73695Z" fill="#1C1C1C"/>
</svg>
