<svg width="12" height="12" viewBox="0 0 12 12" fill="none" xmlns="http://www.w3.org/2000/svg">
<path fill-rule="evenodd" clip-rule="evenodd" d="M6.41526 4.17227L10.4586 2.99994L9.45219 7.08772L8.19673 5.88248L6.17158 7.99201C6.10283 8.06362 6.00785 8.10411 5.90858 8.10411C5.8093 8.10411 5.71432 8.06362 5.64557 7.99201L4.15858 6.44306L1.97158 8.72117C1.83214 8.86643 1.60135 8.87114 1.45609 8.73169C1.31084 8.59225 1.30613 8.36146 1.44557 8.2162L3.89557 5.66412C3.96432 5.59251 4.0593 5.55202 4.15858 5.55202C4.25785 5.55202 4.35283 5.59251 4.42158 5.66412L5.90858 7.21307L7.67072 5.37751L6.41526 4.17227Z" fill="#1C1C1C"/>
</svg>
