<svg width="12" height="12" viewBox="0 0 12 12" fill="none" xmlns="http://www.w3.org/2000/svg">
<path fill-rule="evenodd" clip-rule="evenodd" d="M6.41501 4.17227L10.4583 2.99994L9.45194 7.08772L8.19648 5.88248L6.17134 7.99201C6.10259 8.06362 6.00761 8.10411 5.90833 8.10411C5.80906 8.10411 5.71408 8.06362 5.64533 7.99201L4.15833 6.44306L1.97134 8.72117C1.8319 8.86643 1.6011 8.87114 1.45585 8.73169C1.31059 8.59225 1.30588 8.36146 1.44533 8.2162L3.89533 5.66412C3.96408 5.59251 4.05906 5.55202 4.15833 5.55202C4.25761 5.55202 4.35259 5.59251 4.42134 5.66412L5.90833 7.21307L7.67047 5.37751L6.41501 4.17227Z" fill="#1C1C1C"/>
</svg>
