<svg width="16" height="16" viewBox="0 0 16 16" fill="none" xmlns="http://www.w3.org/2000/svg">
<path d="M12.5153 11.4375H3.40074C3.32098 11.437 3.24274 11.4156 3.17384 11.3754C3.10494 11.3352 3.0478 11.2777 3.00812 11.2085C2.96845 11.1393 2.94763 11.0609 2.94775 10.9811C2.94788 10.9013 2.96893 10.823 3.00881 10.7539C3.38422 10.1045 3.85647 8.46446 3.85647 6.4245C3.85647 5.3367 4.2886 4.29345 5.05779 3.52426C5.82698 2.75506 6.87023 2.32294 7.95803 2.32294C9.04584 2.32294 10.0891 2.75506 10.8583 3.52426C11.6275 4.29345 12.0596 5.3367 12.0596 6.4245C12.0596 8.46503 12.5324 10.1045 12.9084 10.7539C12.9483 10.8231 12.9694 10.9015 12.9694 10.9814C12.9695 11.0613 12.9486 11.1397 12.9088 11.209C12.869 11.2782 12.8117 11.3358 12.7426 11.3759C12.6736 11.416 12.5952 11.4372 12.5153 11.4375Z" fill="#1C1C1C" fill-opacity="0.1"/>
<path d="M13.3017 10.5226C12.9856 9.97803 12.5156 8.43709 12.5156 6.42448C12.5156 5.21581 12.0355 4.05665 11.1808 3.20199C10.3262 2.34733 9.16699 1.86719 7.95832 1.86719C6.74966 1.86719 5.59049 2.34733 4.73583 3.20199C3.88117 4.05665 3.40103 5.21581 3.40103 6.42448C3.40103 8.43766 2.93049 9.97803 2.61433 10.5226C2.53359 10.6611 2.49079 10.8184 2.49024 10.9786C2.48969 11.1389 2.53141 11.2965 2.6112 11.4355C2.69098 11.5745 2.80601 11.69 2.94468 11.7704C3.08335 11.8507 3.24076 11.8931 3.40103 11.8932H5.72582C5.83096 12.4077 6.11058 12.8701 6.51738 13.2022C6.92418 13.5343 7.4332 13.7156 7.95832 13.7156C8.48345 13.7156 8.99246 13.5343 9.39926 13.2022C9.80606 12.8701 10.0857 12.4077 10.1908 11.8932H12.5156C12.6758 11.893 12.8332 11.8506 12.9718 11.7702C13.1104 11.6898 13.2253 11.5742 13.305 11.4353C13.3847 11.2963 13.4264 11.1387 13.4258 10.9785C13.4253 10.8183 13.3825 10.661 13.3017 10.5226ZM7.95832 12.8047C7.67567 12.8046 7.39999 12.7169 7.16923 12.5537C6.93847 12.3905 6.76397 12.1597 6.66975 11.8932H9.2469C9.15268 12.1597 8.97818 12.3905 8.74742 12.5537C8.51666 12.7169 8.24098 12.8046 7.95832 12.8047ZM3.40103 10.9818C3.83967 10.2275 4.31249 8.47982 4.31249 6.42448C4.31249 5.45754 4.6966 4.53021 5.38033 3.84649C6.06406 3.16276 6.99139 2.77865 7.95832 2.77865C8.92526 2.77865 9.85259 3.16276 10.5363 3.84649C11.22 4.53021 11.6042 5.45754 11.6042 6.42448C11.6042 8.47811 12.0758 10.2258 12.5156 10.9818H3.40103Z" fill="#1C1C1C"/>
</svg>
