<svg width="15" height="16" viewBox="0 0 15 16" fill="none" xmlns="http://www.w3.org/2000/svg">
<path d="M13.2994 4.36076V11.6524C13.2994 11.7733 13.2514 11.8892 13.1659 11.9747C13.0805 12.0601 12.9645 12.1082 12.8437 12.1082H9.19784C8.71437 12.1082 8.2507 12.3002 7.90884 12.6421C7.56698 12.9839 7.37492 13.4476 7.37492 13.9311C7.37492 13.4476 7.18286 12.9839 6.841 12.6421C6.49914 12.3002 6.03547 12.1082 5.552 12.1082H1.90617C1.7853 12.1082 1.66939 12.0601 1.58392 11.9747C1.49845 11.8892 1.45044 11.7733 1.45044 11.6524V4.36076C1.45044 4.23989 1.49845 4.12398 1.58392 4.03851C1.66939 3.95304 1.7853 3.90503 1.90617 3.90503H5.552C6.03547 3.90503 6.49914 4.09709 6.841 4.43895C7.18286 4.78081 7.37492 5.24448 7.37492 5.72795C7.37492 5.24448 7.56698 4.78081 7.90884 4.43895C8.2507 4.09709 8.71437 3.90503 9.19784 3.90503H12.8437C12.9645 3.90503 13.0805 3.95304 13.1659 4.03851C13.2514 4.12398 13.2994 4.23989 13.2994 4.36076Z" fill="#1C1C1C" fill-opacity="0.1"/>
<path d="M12.8438 3.44928H9.198C8.84425 3.44928 8.49536 3.53164 8.17896 3.68984C7.86255 3.84804 7.58733 4.07774 7.37508 4.36074C7.16283 4.07774 6.88761 3.84804 6.57121 3.68984C6.2548 3.53164 5.90591 3.44928 5.55216 3.44928H1.90633C1.6646 3.44928 1.43276 3.54531 1.26183 3.71624C1.0909 3.88717 0.994873 4.119 0.994873 4.36074V11.6524C0.994873 11.8941 1.0909 12.126 1.26183 12.2969C1.43276 12.4678 1.6646 12.5639 1.90633 12.5639H5.55216C5.91477 12.5639 6.26252 12.7079 6.51891 12.9643C6.77531 13.2207 6.91935 13.5684 6.91935 13.9311C6.91935 14.0519 6.96737 14.1678 7.05283 14.2533C7.1383 14.3388 7.25421 14.3868 7.37508 14.3868C7.49595 14.3868 7.61187 14.3388 7.69733 14.2533C7.7828 14.1678 7.83081 14.0519 7.83081 13.9311C7.83081 13.5684 7.97485 13.2207 8.23125 12.9643C8.48765 12.7079 8.8354 12.5639 9.198 12.5639H12.8438C13.0856 12.5639 13.3174 12.4678 13.4883 12.2969C13.6593 12.126 13.7553 11.8941 13.7553 11.6524V4.36074C13.7553 4.119 13.6593 3.88717 13.4883 3.71624C13.3174 3.54531 13.0856 3.44928 12.8438 3.44928ZM5.55216 11.6524H1.90633V4.36074H5.55216C5.91477 4.36074 6.26252 4.50478 6.51891 4.76118C6.77531 5.01758 6.91935 5.36532 6.91935 5.72793V12.1081C6.5253 11.8116 6.04532 11.6516 5.55216 11.6524ZM12.8438 11.6524H9.198C8.70484 11.6516 8.22487 11.8116 7.83081 12.1081V5.72793C7.83081 5.36532 7.97485 5.01758 8.23125 4.76118C8.48765 4.50478 8.8354 4.36074 9.198 4.36074H12.8438V11.6524Z" fill="#1C1C1C"/>
</svg>
