<svg width="15" height="16" viewBox="0 0 15 16" fill="none" xmlns="http://www.w3.org/2000/svg">
<path d="M13.6329 4.56254V11.8542C13.6329 11.9751 13.5849 12.091 13.4994 12.1765C13.4139 12.2619 13.298 12.3099 13.1772 12.3099H9.53133C9.04786 12.3099 8.5842 12.502 8.24234 12.8439C7.90047 13.1857 7.70841 13.6494 7.70841 14.1329C7.70841 13.6494 7.51636 13.1857 7.1745 12.8439C6.83263 12.502 6.36897 12.3099 5.8855 12.3099H2.23966C2.1188 12.3099 2.00288 12.2619 1.91742 12.1765C1.83195 12.091 1.78394 11.9751 1.78394 11.8542V4.56254C1.78394 4.44167 1.83195 4.32576 1.91742 4.24029C2.00288 4.15483 2.1188 4.10681 2.23966 4.10681H5.8855C6.36897 4.10681 6.83263 4.29887 7.1745 4.64073C7.51636 4.98259 7.70841 5.44626 7.70841 5.92973C7.70841 5.44626 7.90047 4.98259 8.24234 4.64073C8.5842 4.29887 9.04786 4.10681 9.53133 4.10681H13.1772C13.298 4.10681 13.4139 4.15483 13.4994 4.24029C13.5849 4.32576 13.6329 4.44167 13.6329 4.56254Z" fill="#1C1C1C" fill-opacity="0.1"/>
<path d="M13.1771 3.65106H9.53125C9.1775 3.65106 8.82861 3.73342 8.51221 3.89163C8.19581 4.04983 7.92058 4.27952 7.70833 4.56252C7.49608 4.27952 7.22086 4.04983 6.90446 3.89163C6.58806 3.73342 6.23917 3.65106 5.88542 3.65106H2.23958C1.99785 3.65106 1.76602 3.74709 1.59508 3.91802C1.42415 4.08895 1.32813 4.32079 1.32812 4.56252V11.8542C1.32813 12.0959 1.42415 12.3278 1.59508 12.4987C1.76602 12.6696 1.99785 12.7656 2.23958 12.7656H5.88542C6.24802 12.7656 6.59577 12.9097 6.85216 13.1661C7.10856 13.4225 7.2526 13.7702 7.2526 14.1328C7.2526 14.2537 7.30062 14.3696 7.38608 14.4551C7.47155 14.5405 7.58747 14.5886 7.70833 14.5886C7.8292 14.5886 7.94512 14.5405 8.03058 14.4551C8.11605 14.3696 8.16406 14.2537 8.16406 14.1328C8.16406 13.7702 8.30811 13.4225 8.5645 13.1661C8.8209 12.9097 9.16865 12.7656 9.53125 12.7656H13.1771C13.4188 12.7656 13.6507 12.6696 13.8216 12.4987C13.9925 12.3278 14.0885 12.0959 14.0885 11.8542V4.56252C14.0885 4.32079 13.9925 4.08895 13.8216 3.91802C13.6507 3.74709 13.4188 3.65106 13.1771 3.65106ZM5.88542 11.8542H2.23958V4.56252H5.88542C6.24802 4.56252 6.59577 4.70656 6.85216 4.96296C7.10856 5.21936 7.2526 5.56711 7.2526 5.92971V12.3099C6.85855 12.0134 6.37858 11.8534 5.88542 11.8542ZM13.1771 11.8542H9.53125C9.03809 11.8534 8.55812 12.0134 8.16406 12.3099V5.92971C8.16406 5.56711 8.30811 5.21936 8.5645 4.96296C8.8209 4.70656 9.16865 4.56252 9.53125 4.56252H13.1771V11.8542Z" fill="#1C1C1C"/>
</svg>
