<svg width="12" height="13" viewBox="0 0 12 13" fill="none" xmlns="http://www.w3.org/2000/svg">
<path d="M6.08304 4.46871C5.7225 4.46871 5.37006 4.57562 5.07028 4.77593C4.7705 4.97623 4.53686 5.26093 4.39888 5.59403C4.26091 5.92712 4.22481 6.29365 4.29515 6.64726C4.36549 7.00087 4.5391 7.32568 4.79404 7.58062C5.04898 7.83556 5.3738 8.00918 5.72741 8.07952C6.08102 8.14985 6.44755 8.11375 6.78064 7.97578C7.11373 7.83781 7.39844 7.60416 7.59874 7.30438C7.79904 7.00461 7.90596 6.65217 7.90596 6.29163C7.90596 5.80816 7.7139 5.34449 7.37204 5.00263C7.03017 4.66077 6.56651 4.46871 6.08304 4.46871ZM6.08304 7.38538C5.86672 7.38538 5.65525 7.32123 5.47538 7.20105C5.29552 7.08086 5.15533 6.91004 5.07255 6.71019C4.98976 6.51033 4.9681 6.29041 5.01031 6.07825C5.05251 5.86608 5.15668 5.67119 5.30964 5.51823C5.46261 5.36526 5.65749 5.26109 5.86966 5.21889C6.08183 5.17669 6.30174 5.19835 6.5016 5.28113C6.70146 5.36392 6.87228 5.5041 6.99246 5.68397C7.11264 5.86384 7.17679 6.0753 7.17679 6.29163C7.17679 6.58171 7.06156 6.85991 6.85644 7.06502C6.65132 7.27014 6.37312 7.38538 6.08304 7.38538ZM9.44222 7.71077C9.28558 8.08108 9.06877 8.42294 8.80055 8.72249C8.73561 8.79276 8.64564 8.83468 8.55005 8.83921C8.45447 8.84374 8.36094 8.81051 8.28964 8.74668C8.21834 8.68286 8.175 8.59357 8.16895 8.49807C8.1629 8.40257 8.19464 8.30853 8.25732 8.23622C8.73604 7.70172 9.00075 7.0094 9.00075 6.29185C9.00075 5.57431 8.73604 4.88199 8.25732 4.34749C8.2245 4.31197 8.19907 4.27027 8.18251 4.22483C8.16596 4.17938 8.15861 4.1311 8.1609 4.08279C8.16319 4.03448 8.17506 3.9871 8.19584 3.94343C8.21662 3.89975 8.24587 3.86064 8.28191 3.82839C8.31795 3.79613 8.36004 3.77136 8.40574 3.75553C8.45145 3.7397 8.49984 3.73312 8.54811 3.73618C8.59638 3.73924 8.64356 3.75187 8.6869 3.77333C8.73024 3.7948 8.76887 3.82468 8.80055 3.86122C9.26091 4.37635 9.56559 5.01157 9.67918 5.69302C9.79277 6.37447 9.7106 7.07417 9.44222 7.71077ZM3.39424 5.1564C3.17912 5.66562 3.11315 6.22549 3.204 6.77076C3.29485 7.31603 3.53879 7.82426 3.90739 8.23622C3.97007 8.30853 4.00181 8.40257 3.99576 8.49807C3.98972 8.59357 3.94637 8.68286 3.87507 8.74668C3.80377 8.81051 3.71024 8.84374 3.61466 8.83921C3.51908 8.83468 3.42911 8.79276 3.36416 8.72249C2.7656 8.05437 2.43461 7.18888 2.43461 6.29185C2.43461 5.39483 2.7656 4.52934 3.36416 3.86122C3.42864 3.789 3.51917 3.74536 3.61583 3.73989C3.7125 3.73442 3.80737 3.76757 3.87959 3.83206C3.95181 3.89654 3.99545 3.98707 4.00092 4.08373C4.00639 4.18039 3.97324 4.27527 3.90876 4.34749C3.69365 4.58678 3.51978 4.86014 3.39424 5.1564ZM11.5518 6.29163C11.554 7.72341 10.9927 9.09854 9.9891 10.1198C9.95589 10.1552 9.91593 10.1837 9.87155 10.2036C9.82718 10.2234 9.77928 10.2342 9.73069 10.2352C9.6821 10.2363 9.63379 10.2276 9.58859 10.2097C9.5434 10.1918 9.50225 10.165 9.46755 10.131C9.43285 10.097 9.4053 10.0563 9.38653 10.0115C9.36776 9.96667 9.35814 9.91854 9.35825 9.86994C9.35835 9.82133 9.36817 9.77324 9.38713 9.72848C9.40609 9.68373 9.43381 9.64322 9.46865 9.60934C10.3376 8.72402 10.8244 7.53305 10.8244 6.29254C10.8244 5.05203 10.3376 3.86106 9.46865 2.97574C9.40072 2.90673 9.363 2.81355 9.36377 2.71672C9.36453 2.61989 9.40374 2.52733 9.47275 2.4594C9.54177 2.39147 9.63494 2.35374 9.73177 2.35451C9.82861 2.35528 9.92117 2.39449 9.9891 2.4635C10.9927 3.48471 11.554 4.85985 11.5518 6.29163ZM2.69743 9.60842C2.731 9.6426 2.75752 9.68305 2.77546 9.72747C2.7934 9.77189 2.80242 9.81941 2.80199 9.86731C2.80157 9.91521 2.79172 9.96257 2.77299 10.0067C2.75427 10.0508 2.72704 10.0907 2.69287 10.1243C2.6587 10.1579 2.61825 10.1844 2.57383 10.2023C2.52941 10.2203 2.48189 10.2293 2.43398 10.2289C2.38608 10.2285 2.33873 10.2186 2.29463 10.1999C2.25054 10.1811 2.21056 10.1539 2.17699 10.1198C1.17355 9.09822 0.611328 7.72355 0.611328 6.29163C0.611328 4.85971 1.17355 3.48503 2.17699 2.4635C2.21019 2.428 2.25015 2.3995 2.29453 2.37968C2.3389 2.35985 2.3868 2.34909 2.43539 2.34805C2.48398 2.347 2.5323 2.35568 2.57749 2.37357C2.62268 2.39147 2.66383 2.41822 2.69853 2.45225C2.73323 2.48628 2.76078 2.52691 2.77955 2.57174C2.79832 2.61658 2.80794 2.66471 2.80784 2.71332C2.80773 2.76192 2.79791 2.81001 2.77895 2.85477C2.75999 2.89952 2.73227 2.94003 2.69743 2.97392C1.82847 3.85923 1.34165 5.0502 1.34165 6.29071C1.34165 7.53123 1.82847 8.7222 2.69743 9.60751V9.60842Z" fill="#1C1C1C"/>
</svg>
