<svg width="12" height="13" viewBox="0 0 12 13" fill="none" xmlns="http://www.w3.org/2000/svg">
<path d="M9.72917 7.47911H10.4583C10.555 7.47911 10.6478 7.44069 10.7161 7.37232C10.7845 7.30395 10.8229 7.21122 10.8229 7.11452C10.8229 7.01783 10.7845 6.9251 10.7161 6.85672C10.6478 6.78835 10.555 6.74994 10.4583 6.74994H9.72917V6.02077H10.4583C10.555 6.02077 10.6478 5.98236 10.7161 5.91399C10.7845 5.84562 10.8229 5.75288 10.8229 5.65619C10.8229 5.5595 10.7845 5.46676 10.7161 5.39839C10.6478 5.33002 10.555 5.29161 10.4583 5.29161H9.71094C9.63041 4.49141 9.28678 3.74052 8.73385 3.15651L9.62253 2.2683C9.6564 2.23442 9.68327 2.19421 9.7016 2.14995C9.71993 2.10569 9.72937 2.05826 9.72937 2.01035C9.72937 1.96245 9.71993 1.91502 9.7016 1.87076C9.68327 1.8265 9.6564 1.78629 9.62253 1.75241C9.58865 1.71854 9.54844 1.69167 9.50418 1.67334C9.45992 1.655 9.41249 1.64557 9.36458 1.64557C9.31668 1.64557 9.26924 1.655 9.22499 1.67334C9.18073 1.69167 9.14051 1.71854 9.10664 1.75241L8.18197 2.67754C7.56827 2.24342 6.83505 2.0103 6.08333 2.0103C5.33162 2.0103 4.5984 2.24342 3.9847 2.67754L3.06003 1.75241C2.99162 1.684 2.89883 1.64557 2.80208 1.64557C2.70534 1.64557 2.61255 1.684 2.54414 1.75241C2.47573 1.82082 2.4373 1.91361 2.4373 2.01035C2.4373 2.1071 2.47573 2.19989 2.54414 2.2683L3.43281 3.15651C2.87989 3.74052 2.53626 4.49141 2.45573 5.29161H1.70833C1.61164 5.29161 1.51891 5.33002 1.45053 5.39839C1.38216 5.46676 1.34375 5.5595 1.34375 5.65619C1.34375 5.75288 1.38216 5.84562 1.45053 5.91399C1.51891 5.98236 1.61164 6.02077 1.70833 6.02077H2.4375V6.74994H1.70833C1.61164 6.74994 1.51891 6.78835 1.45053 6.85672C1.38216 6.9251 1.34375 7.01783 1.34375 7.11452C1.34375 7.21122 1.38216 7.30395 1.45053 7.37232C1.51891 7.44069 1.61164 7.47911 1.70833 7.47911H2.4375V7.84369C2.4375 7.96674 2.44388 8.08842 2.45573 8.20827H1.70833C1.61164 8.20827 1.51891 8.24668 1.45053 8.31506C1.38216 8.38343 1.34375 8.47616 1.34375 8.57286C1.34375 8.66955 1.38216 8.76228 1.45053 8.83066C1.51891 8.89903 1.61164 8.93744 1.70833 8.93744H2.60521C2.83784 9.67769 3.30059 10.3244 3.92613 10.7835C4.55167 11.2427 5.30739 11.4902 6.08333 11.4902C6.85928 11.4902 7.61499 11.2427 8.24054 10.7835C8.86608 10.3244 9.32882 9.67769 9.56146 8.93744H10.4583C10.555 8.93744 10.6478 8.89903 10.7161 8.83066C10.7845 8.76228 10.8229 8.66955 10.8229 8.57286C10.8229 8.47616 10.7845 8.38343 10.7161 8.31506C10.6478 8.24668 10.555 8.20827 10.4583 8.20827H9.71094C9.72279 8.08842 9.72917 7.96674 9.72917 7.84369V7.47911ZM6.08333 2.73952C6.79341 2.74041 7.47882 3.00001 8.01131 3.46976C8.5438 3.9395 8.88686 4.58719 8.9763 5.29161H3.18854C3.27802 4.58688 3.62135 3.93894 4.15422 3.46915C4.68709 2.99937 5.37295 2.73996 6.08333 2.73952ZM6.44792 10.7367V7.11452C6.44792 7.01783 6.40951 6.9251 6.34113 6.85672C6.27276 6.78835 6.18003 6.74994 6.08333 6.74994C5.98664 6.74994 5.89391 6.78835 5.82553 6.85672C5.75716 6.9251 5.71875 7.01783 5.71875 7.11452V10.7367C5.01433 10.6472 4.36664 10.3042 3.8969 9.77167C3.42716 9.23918 3.16755 8.55376 3.16667 7.84369V6.02077H9V7.84369C8.99912 8.55376 8.73951 9.23918 8.26977 9.77167C7.80002 10.3042 7.15233 10.6472 6.44792 10.7367Z" fill="#1C1C1C"/>
</svg>
