<svg width="12" height="13" viewBox="0 0 12 13" fill="none" xmlns="http://www.w3.org/2000/svg">
<path d="M9.72917 7.02079H10.4583C10.555 7.02079 10.6478 6.98238 10.7161 6.91401C10.7845 6.84564 10.8229 6.7529 10.8229 6.65621C10.8229 6.55952 10.7845 6.46678 10.7161 6.39841C10.6478 6.33004 10.555 6.29163 10.4583 6.29163H9.72917V5.56246H10.4583C10.555 5.56246 10.6478 5.52405 10.7161 5.45567C10.7845 5.3873 10.8229 5.29457 10.8229 5.19788C10.8229 5.10118 10.7845 5.00845 10.7161 4.94008C10.6478 4.8717 10.555 4.83329 10.4583 4.83329H9.71094C9.63041 4.0331 9.28678 3.28221 8.73385 2.6982L9.62253 1.80998C9.6564 1.77611 9.68327 1.7359 9.7016 1.69164C9.71993 1.64738 9.72937 1.59995 9.72937 1.55204C9.72937 1.50414 9.71993 1.4567 9.7016 1.41244C9.68327 1.36819 9.6564 1.32797 9.62253 1.2941C9.58865 1.26023 9.54844 1.23336 9.50418 1.21502C9.45992 1.19669 9.41249 1.18726 9.36458 1.18726C9.31668 1.18726 9.26924 1.19669 9.22499 1.21502C9.18073 1.23336 9.14051 1.26023 9.10664 1.2941L8.18197 2.21923C7.56827 1.78511 6.83505 1.55199 6.08333 1.55199C5.33162 1.55199 4.5984 1.78511 3.9847 2.21923L3.06003 1.2941C2.99162 1.22569 2.89883 1.18726 2.80208 1.18726C2.70534 1.18726 2.61255 1.22569 2.54414 1.2941C2.47573 1.36251 2.4373 1.45529 2.4373 1.55204C2.4373 1.64879 2.47573 1.74157 2.54414 1.80998L3.43281 2.6982C2.87989 3.28221 2.53626 4.0331 2.45573 4.83329H1.70833C1.61164 4.83329 1.51891 4.8717 1.45053 4.94008C1.38216 5.00845 1.34375 5.10118 1.34375 5.19788C1.34375 5.29457 1.38216 5.3873 1.45053 5.45567C1.51891 5.52405 1.61164 5.56246 1.70833 5.56246H2.4375V6.29163H1.70833C1.61164 6.29163 1.51891 6.33004 1.45053 6.39841C1.38216 6.46678 1.34375 6.55952 1.34375 6.65621C1.34375 6.7529 1.38216 6.84564 1.45053 6.91401C1.51891 6.98238 1.61164 7.02079 1.70833 7.02079H2.4375V7.38538C2.4375 7.50842 2.44388 7.6301 2.45573 7.74996H1.70833C1.61164 7.74996 1.51891 7.78837 1.45053 7.85674C1.38216 7.92512 1.34375 8.01785 1.34375 8.11454C1.34375 8.21124 1.38216 8.30397 1.45053 8.37234C1.51891 8.44072 1.61164 8.47913 1.70833 8.47913H2.60521C2.83784 9.21938 3.30059 9.86611 3.92613 10.3252C4.55167 10.7843 5.30739 11.0319 6.08333 11.0319C6.85928 11.0319 7.61499 10.7843 8.24054 10.3252C8.86608 9.86611 9.32882 9.21938 9.56146 8.47913H10.4583C10.555 8.47913 10.6478 8.44072 10.7161 8.37234C10.7845 8.30397 10.8229 8.21124 10.8229 8.11454C10.8229 8.01785 10.7845 7.92512 10.7161 7.85674C10.6478 7.78837 10.555 7.74996 10.4583 7.74996H9.71094C9.72279 7.6301 9.72917 7.50842 9.72917 7.38538V7.02079ZM6.08333 2.28121C6.79341 2.28209 7.47882 2.5417 8.01131 3.01144C8.5438 3.48119 8.88686 4.12887 8.9763 4.83329H3.18854C3.27802 4.12856 3.62135 3.48063 4.15422 3.01084C4.68709 2.54106 5.37295 2.28165 6.08333 2.28121ZM6.44792 10.2783V6.65621C6.44792 6.55952 6.40951 6.46678 6.34113 6.39841C6.27276 6.33004 6.18003 6.29163 6.08333 6.29163C5.98664 6.29163 5.89391 6.33004 5.82553 6.39841C5.75716 6.46678 5.71875 6.55952 5.71875 6.65621V10.2783C5.01433 10.1889 4.36664 9.84584 3.8969 9.31335C3.42716 8.78087 3.16755 8.09545 3.16667 7.38538V5.56246H9V7.38538C8.99912 8.09545 8.73951 8.78087 8.26977 9.31335C7.80002 9.84584 7.15233 10.1889 6.44792 10.2783Z" fill="#1C1C1C"/>
</svg>
