<svg width="15" height="16" viewBox="0 0 15 16" fill="none" xmlns="http://www.w3.org/2000/svg">
<path d="M5.77995 7.25751C5.84924 7.2175 5.90678 7.15995 5.94678 7.09066C5.98678 7.02136 6.00783 6.94275 6.00781 6.86273V2.76117C6.00741 2.68851 5.98963 2.617 5.95598 2.55261C5.92232 2.48822 5.87375 2.43281 5.81433 2.391C5.7549 2.34919 5.68634 2.32219 5.61436 2.31227C5.54239 2.30234 5.46908 2.30976 5.40056 2.33392C4.07038 2.8047 2.95176 3.73452 2.24578 4.95623C1.5398 6.17794 1.29276 7.61141 1.54907 8.99896C1.56236 9.07072 1.59268 9.13823 1.63749 9.19582C1.6823 9.25342 1.74028 9.29941 1.80656 9.32994C1.86629 9.35787 1.93146 9.37226 1.9974 9.37209C2.07739 9.37212 2.15597 9.3511 2.22526 9.31114L5.77995 7.25751ZM5.09636 3.4516V6.59955L2.36882 8.17352C2.36198 8.0875 2.36198 8.00092 2.36198 7.91661C2.36279 6.99282 2.6185 6.08717 3.10094 5.29938C3.58339 4.51158 4.27387 3.87219 5.09636 3.4516ZM12.5213 4.98399C12.5162 4.97373 12.5111 4.96291 12.5048 4.95266C12.4985 4.9424 12.4934 4.93386 12.4871 4.92474C11.9648 4.03254 11.2182 3.29248 10.3214 2.77804C9.42461 2.26359 8.40886 1.99265 7.375 1.99213C7.25414 1.99213 7.13822 2.04014 7.05275 2.12561C6.96729 2.21107 6.91927 2.32699 6.91927 2.44786V7.67906L2.42977 10.2938C2.37767 10.324 2.33208 10.3642 2.29562 10.4122C2.25916 10.4601 2.23256 10.5148 2.21736 10.573C2.20216 10.6313 2.19865 10.692 2.20705 10.7516C2.21545 10.8113 2.23558 10.8686 2.26628 10.9204C2.92496 12.0421 3.93448 12.9158 5.13904 13.4067C6.3436 13.8976 7.67624 13.9785 8.93131 13.6368C10.1864 13.2951 11.2941 12.5498 12.0836 11.516C12.873 10.4822 13.3003 9.21736 13.2995 7.91661C13.3008 6.88787 13.0325 5.87674 12.5213 4.98399ZM7.83073 2.92409C8.55352 2.99062 9.25325 3.21323 9.88162 3.57654C10.51 3.93985 11.052 4.43521 11.4703 5.02842L7.83073 7.14813V2.92409ZM7.375 12.9296C6.57942 12.9276 5.79563 12.7372 5.08778 12.374C4.37993 12.0108 3.76815 11.4852 3.30249 10.8401L7.59774 8.33873L7.61027 8.33075L11.9266 5.81683C12.2789 6.5806 12.4334 7.42074 12.3758 8.25988C12.3182 9.09902 12.0504 9.91017 11.597 10.6186C11.1437 11.3271 10.5193 11.9101 9.7815 12.314C9.04368 12.7178 8.21611 12.9295 7.375 12.9296Z" fill="#1C1C1C"/>
</svg>
