<svg width="15" height="15" viewBox="0 0 15 15" fill="none" xmlns="http://www.w3.org/2000/svg">
<path d="M13.2994 8.95068V12.7105C13.2994 12.8011 13.2634 12.888 13.1993 12.9521C13.1352 13.0162 13.0483 13.0522 12.9576 13.0522H9.19784C8.34948 13.0525 7.52194 12.7896 6.8292 12.2999C6.13646 11.8102 5.61262 11.1177 5.32983 10.3179H5.552C6.6398 10.3179 7.68305 9.88574 8.45224 9.11655C9.22144 8.34736 9.65356 7.30411 9.65356 6.21631C9.65385 5.753 9.57545 5.29301 9.42171 4.85596C10.4691 4.91321 11.4547 5.36955 12.1759 6.13116C12.8972 6.89277 13.2992 7.90176 13.2994 8.95068Z" fill="#1C1C1C" fill-opacity="0.1"/>
<path d="M9.74316 4.427C9.33073 3.46139 8.59752 2.66783 7.66748 2.18046C6.73745 1.6931 5.66766 1.54183 4.63896 1.75223C3.61026 1.96263 2.68577 2.5218 2.02179 3.33519C1.3578 4.14859 0.995054 5.16631 0.994873 6.2163V9.97607C0.994873 10.1876 1.0789 10.3904 1.22846 10.54C1.37803 10.6896 1.58088 10.7736 1.7924 10.7736H5.02067C5.3763 11.5857 5.96069 12.2768 6.70249 12.7623C7.44429 13.2479 8.31141 13.507 9.198 13.508H12.9578C13.1693 13.508 13.3721 13.4239 13.5217 13.2744C13.6713 13.1248 13.7553 12.922 13.7553 12.7104V8.95068C13.7551 7.83657 13.3468 6.76113 12.6075 5.92762C11.8682 5.09411 10.8493 4.56027 9.74316 4.427ZM1.90633 6.2163C1.90633 5.49522 2.12016 4.79034 2.52077 4.19079C2.92137 3.59123 3.49078 3.12394 4.15696 2.84799C4.82315 2.57205 5.55621 2.49985 6.26343 2.64052C6.97065 2.7812 7.62028 3.12843 8.13016 3.63831C8.64004 4.14819 8.98727 4.79781 9.12795 5.50504C9.26862 6.21226 9.19642 6.94531 8.92048 7.6115C8.64453 8.27769 8.17724 8.84709 7.57768 9.2477C6.97813 9.64831 6.27324 9.86214 5.55216 9.86214H1.90633V6.2163ZM12.8438 12.5965H9.198C8.55332 12.5958 7.92031 12.4245 7.36324 12.1C6.80616 11.7756 6.34484 11.3095 6.02612 10.7491C6.65031 10.6843 7.25437 10.4912 7.80039 10.1819C8.34641 9.87262 8.8226 9.45379 9.19907 8.95172C9.57554 8.44965 9.84417 7.87518 9.98809 7.26437C10.132 6.65356 10.1481 6.01959 10.0354 5.40226C10.8348 5.59091 11.5471 6.04396 12.0568 6.688C12.5665 7.33204 12.8438 8.12933 12.8438 8.95068V12.5965Z" fill="#1C1C1C"/>
</svg>
