<svg width="15" height="16" viewBox="0 0 15 16" fill="none" xmlns="http://www.w3.org/2000/svg">
<path d="M12.7214 7.79165C12.7214 8.78313 12.4273 9.75234 11.8765 10.5767C11.3257 11.4011 10.5427 12.0436 9.62674 12.4231C8.71073 12.8025 7.70277 12.9018 6.73034 12.7083C5.75791 12.5149 4.86468 12.0375 4.16359 11.3364C3.46251 10.6353 2.98507 9.74207 2.79164 8.76964C2.59821 7.79721 2.69748 6.78926 3.07691 5.87325C3.45633 4.95724 4.09886 4.17431 4.92325 3.62347C5.74764 3.07263 6.71685 2.77863 7.70834 2.77863C9.03787 2.77863 10.313 3.30678 11.2531 4.24691C12.1932 5.18703 12.7214 6.46211 12.7214 7.79165Z" fill="#1C1C1C" fill-opacity="0.1"/>
<path d="M8.1639 5.05733V7.53365L10.2215 8.7681C10.3252 8.83035 10.3998 8.93122 10.4291 9.04852C10.4584 9.16582 10.4399 9.28995 10.3776 9.39359C10.3154 9.49723 10.2145 9.57191 10.0972 9.60118C9.97988 9.63045 9.85576 9.61193 9.75212 9.54968L7.47347 8.18249C7.40603 8.14197 7.35023 8.08469 7.31149 8.0162C7.27276 7.94772 7.25242 7.87038 7.25244 7.7917V5.05733C7.25244 4.93646 7.30046 4.82055 7.38592 4.73508C7.47139 4.64961 7.5873 4.6016 7.70817 4.6016C7.82904 4.6016 7.94495 4.64961 8.03042 4.73508C8.11589 4.82055 8.1639 4.93646 8.1639 5.05733ZM7.70817 2.32295C6.98926 2.32116 6.27712 2.46197 5.61299 2.73723C4.94885 3.01248 4.3459 3.41672 3.83903 3.92655C3.42489 4.34582 3.05688 4.74914 2.69515 5.17126V4.14587C2.69515 4.025 2.64714 3.90909 2.56167 3.82362C2.4762 3.73816 2.36029 3.69014 2.23942 3.69014C2.11855 3.69014 2.00264 3.73816 1.91717 3.82362C1.83171 3.90909 1.78369 4.025 1.78369 4.14587V6.42452C1.78369 6.54538 1.83171 6.6613 1.91717 6.74677C2.00264 6.83223 2.11855 6.88025 2.23942 6.88025H4.51807C4.63893 6.88025 4.75485 6.83223 4.84032 6.74677C4.92578 6.6613 4.9738 6.54538 4.9738 6.42452C4.9738 6.30365 4.92578 6.18773 4.84032 6.10227C4.75485 6.0168 4.63893 5.96879 4.51807 5.96879H3.20785C3.61515 5.48913 4.02075 5.03739 4.48332 4.56913C5.1167 3.93575 5.92268 3.50307 6.80057 3.32515C7.67845 3.14722 8.5893 3.23195 9.41931 3.56874C10.2493 3.90553 10.9617 4.47944 11.4674 5.21878C11.9731 5.95811 12.2497 6.83007 12.2626 7.72571C12.2756 8.62135 12.0243 9.50094 11.5402 10.2546C11.0561 11.0082 10.3607 11.6025 9.54074 11.9632C8.72083 12.3238 7.81281 12.4349 6.93015 12.2824C6.04748 12.13 5.22932 11.7208 4.57788 11.106C4.53434 11.0648 4.48313 11.0327 4.42716 11.0113C4.37119 10.99 4.31156 10.9799 4.25168 10.9816C4.1918 10.9832 4.13284 10.9967 4.07816 11.0212C4.02349 11.0457 3.97417 11.0807 3.93302 11.1242C3.89188 11.1678 3.85971 11.219 3.83836 11.2749C3.81701 11.3309 3.80689 11.3905 3.80858 11.4504C3.81028 11.5103 3.82375 11.5693 3.84823 11.6239C3.87271 11.6786 3.90771 11.7279 3.95125 11.7691C4.60035 12.3816 5.38951 12.826 6.24984 13.0634C7.11017 13.3008 8.01554 13.3241 8.88692 13.1311C9.7583 12.9382 10.5692 12.5349 11.2489 11.9565C11.9286 11.378 12.4564 10.6421 12.7862 9.81276C13.116 8.98345 13.2379 8.08602 13.1411 7.19879C13.0444 6.31156 12.7319 5.4615 12.2311 4.72279C11.7302 3.98407 11.0562 3.37916 10.2678 2.96085C9.47945 2.54254 8.60066 2.32353 7.70817 2.32295Z" fill="#1C1C1C"/>
</svg>
