<svg width="15" height="16" viewBox="0 0 15 16" fill="none" xmlns="http://www.w3.org/2000/svg">
<path d="M7.375 5.52228L5.67342 6.79832C5.59454 6.85748 5.49859 6.88947 5.39998 6.88947H1.90625V4.61082C1.90625 4.48995 1.95426 4.37404 2.03973 4.28857C2.1252 4.2031 2.24111 4.15509 2.36198 4.15509H5.39998C5.49859 4.15509 5.59454 4.18707 5.67342 4.24624L7.375 5.52228Z" fill="#1C1C1C" fill-opacity="0.1"/>
<path d="M12.3879 5.06653H7.52702L5.94678 3.88163C5.78878 3.76374 5.59704 3.69983 5.3999 3.69934H2.3619C2.12016 3.69934 1.88833 3.79537 1.7174 3.9663C1.54647 4.13723 1.45044 4.36907 1.45044 4.6108V12.3582C1.45044 12.5999 1.54647 12.8318 1.7174 13.0027C1.88833 13.1736 2.12016 13.2697 2.3619 13.2697H12.3879C12.6297 13.2697 12.8615 13.1736 13.0324 13.0027C13.2034 12.8318 13.2994 12.5999 13.2994 12.3582V5.97799C13.2994 5.73625 13.2034 5.50442 13.0324 5.33349C12.8615 5.16256 12.6297 5.06653 12.3879 5.06653ZM2.3619 4.6108H5.3999L6.61556 5.52226L5.3999 6.43372H2.3619V4.6108ZM12.3879 12.3582H2.3619V7.34517H5.3999C5.59704 7.34469 5.78878 7.28077 5.94678 7.16288L7.52702 5.97799H12.3879V12.3582Z" fill="#1C1C1C"/>
</svg>
