<svg width="15" height="16" viewBox="0 0 15 16" fill="none" xmlns="http://www.w3.org/2000/svg">
<path d="M12.388 3.27612H2.36198C2.24111 3.27612 2.1252 3.32414 2.03973 3.4096C1.95426 3.49507 1.90625 3.61099 1.90625 3.73185V11.935C1.90625 12.0558 1.95426 12.1718 2.03973 12.2572C2.1252 12.3427 2.24111 12.3907 2.36198 12.3907H12.388C12.5089 12.3907 12.6248 12.3427 12.7103 12.2572C12.7957 12.1718 12.8437 12.0558 12.8437 11.935V3.73185C12.8437 3.61099 12.7957 3.49507 12.7103 3.4096C12.6248 3.32414 12.5089 3.27612 12.388 3.27612ZM5.55208 8.74487C5.28168 8.74487 5.01735 8.66469 4.79251 8.51446C4.56768 8.36423 4.39245 8.15071 4.28897 7.90089C4.18549 7.65106 4.15841 7.37617 4.21117 7.11096C4.26392 6.84575 4.39413 6.60214 4.58534 6.41094C4.77654 6.21973 5.02015 6.08952 5.28536 6.03677C5.55057 5.98401 5.82546 6.01109 6.07528 6.11457C6.3251 6.21805 6.53863 6.39328 6.68886 6.61812C6.83909 6.84295 6.91927 7.10728 6.91927 7.37769C6.91927 7.74029 6.77523 8.08804 6.51883 8.34443C6.26243 8.60083 5.91468 8.74487 5.55208 8.74487Z" fill="#1C1C1C" fill-opacity="0.1"/>
<path d="M11.4765 6.922C11.4765 7.04286 11.4285 7.15878 11.343 7.24425C11.2575 7.32971 11.1416 7.37773 11.0208 7.37773H8.74211C8.62124 7.37773 8.50532 7.32971 8.41986 7.24425C8.33439 7.15878 8.28638 7.04286 8.28638 6.922C8.28638 6.80113 8.33439 6.68521 8.41986 6.59975C8.50532 6.51428 8.62124 6.46627 8.74211 6.46627H11.0208C11.1416 6.46627 11.2575 6.51428 11.343 6.59975C11.4285 6.68521 11.4765 6.80113 11.4765 6.922ZM11.0208 8.28918H8.74211C8.62124 8.28918 8.50532 8.3372 8.41986 8.42266C8.33439 8.50813 8.28638 8.62405 8.28638 8.74491C8.28638 8.86578 8.33439 8.9817 8.41986 9.06716C8.50532 9.15263 8.62124 9.20064 8.74211 9.20064H11.0208C11.1416 9.20064 11.2575 9.15263 11.343 9.06716C11.4285 8.9817 11.4765 8.86578 11.4765 8.74491C11.4765 8.62405 11.4285 8.50813 11.343 8.42266C11.2575 8.3372 11.1416 8.28918 11.0208 8.28918ZM13.2994 3.73189V11.935C13.2994 12.1768 13.2034 12.4086 13.0324 12.5795C12.8615 12.7504 12.6297 12.8465 12.3879 12.8465H2.3619C2.12016 12.8465 1.88833 12.7504 1.7174 12.5795C1.54647 12.4086 1.45044 12.1768 1.45044 11.935V3.73189C1.45044 3.49016 1.54647 3.25833 1.7174 3.08739C1.88833 2.91646 2.12016 2.82043 2.3619 2.82043H12.3879C12.6297 2.82043 12.8615 2.91646 13.0324 3.08739C13.2034 3.25833 13.2994 3.49016 13.2994 3.73189ZM12.3879 11.935V3.73189H2.3619V11.935H12.3879ZM7.81584 9.99817C7.84605 10.1153 7.82852 10.2396 7.76709 10.3437C7.70566 10.4479 7.60537 10.5234 7.48828 10.5536C7.37119 10.5838 7.24689 10.5663 7.14273 10.5048C7.03857 10.4434 6.96308 10.3431 6.93286 10.226C6.78304 9.64156 6.18888 9.20064 5.55143 9.20064C4.91398 9.20064 4.32039 9.64156 4.17 10.226C4.13979 10.3431 4.06429 10.4434 3.96013 10.5048C3.85597 10.5663 3.73167 10.5838 3.61458 10.5536C3.49749 10.5234 3.3972 10.4479 3.33577 10.3437C3.27435 10.2396 3.25681 10.1153 3.28703 9.99817C3.43491 9.44773 3.78449 8.97309 4.26628 8.66858C4.01025 8.41407 3.83556 8.08928 3.76434 7.73538C3.69312 7.38147 3.72859 7.01439 3.86624 6.68066C4.00389 6.34693 4.23754 6.06159 4.53755 5.86081C4.83756 5.66002 5.19043 5.55284 5.55143 5.55284C5.91243 5.55284 6.26531 5.66002 6.56532 5.86081C6.86533 6.06159 7.09897 6.34693 7.23662 6.68066C7.37428 7.01439 7.40974 7.38147 7.33852 7.73538C7.26731 8.08928 7.09261 8.41407 6.83659 8.66858C7.3189 8.97265 7.66879 9.44745 7.81641 9.99817H7.81584ZM5.552 8.28918C5.73227 8.28918 5.90849 8.23573 6.05838 8.13558C6.20827 8.03542 6.32509 7.89307 6.39408 7.72653C6.46307 7.55998 6.48112 7.37672 6.44595 7.19991C6.41078 7.0231 6.32397 6.8607 6.1965 6.73323C6.06903 6.60576 5.90662 6.51895 5.72982 6.48378C5.55301 6.44861 5.36975 6.46666 5.2032 6.53565C5.03666 6.60463 4.8943 6.72146 4.79415 6.87135C4.694 7.02124 4.64054 7.19746 4.64054 7.37773C4.64054 7.61946 4.73657 7.85129 4.9075 8.02222C5.07844 8.19316 5.31027 8.28918 5.552 8.28918Z" fill="#1C1C1C"/>
</svg>
