<svg width="15" height="15" viewBox="0 0 15 15" fill="none" xmlns="http://www.w3.org/2000/svg">
<path d="M4.64071 2.57043V12.5965H2.81779C2.69692 12.5965 2.58101 12.5485 2.49554 12.463C2.41007 12.3775 2.36206 12.2616 2.36206 12.1407V3.02616C2.36206 2.9053 2.41007 2.78938 2.49554 2.70391C2.58101 2.61845 2.69692 2.57043 2.81779 2.57043H4.64071Z" fill="#1C1C1C" fill-opacity="0.1"/>
<path d="M10.5651 6.67204C10.5651 6.7929 10.5171 6.90882 10.4316 6.99429C10.3462 7.07975 10.2302 7.12777 10.1094 7.12777H6.46354C6.34267 7.12777 6.22676 7.07975 6.14129 6.99429C6.05583 6.90882 6.00781 6.7929 6.00781 6.67204C6.00781 6.55117 6.05583 6.43525 6.14129 6.34979C6.22676 6.26432 6.34267 6.21631 6.46354 6.21631H10.1094C10.2302 6.21631 10.3462 6.26432 10.4316 6.34979C10.5171 6.43525 10.5651 6.55117 10.5651 6.67204ZM10.1094 8.03923H6.46354C6.34267 8.03923 6.22676 8.08724 6.14129 8.1727C6.05583 8.25817 6.00781 8.37409 6.00781 8.49495C6.00781 8.61582 6.05583 8.73174 6.14129 8.8172C6.22676 8.90267 6.34267 8.95068 6.46354 8.95068H10.1094C10.2302 8.95068 10.3462 8.90267 10.4316 8.8172C10.5171 8.73174 10.5651 8.61582 10.5651 8.49495C10.5651 8.37409 10.5171 8.25817 10.4316 8.1727C10.3462 8.08724 10.2302 8.03923 10.1094 8.03923ZM12.8437 3.0262V12.1408C12.8437 12.3825 12.7477 12.6144 12.5768 12.7853C12.4059 12.9562 12.174 13.0522 11.9323 13.0522H2.81771C2.57597 13.0522 2.34414 12.9562 2.17321 12.7853C2.00228 12.6144 1.90625 12.3825 1.90625 12.1408V3.0262C1.90625 2.78447 2.00228 2.55264 2.17321 2.38171C2.34414 2.21077 2.57597 2.11475 2.81771 2.11475H11.9323C12.174 2.11475 12.4059 2.21077 12.5768 2.38171C12.7477 2.55264 12.8437 2.78447 12.8437 3.0262ZM2.81771 12.1408H4.1849V3.0262H2.81771V12.1408ZM11.9323 12.1408V3.0262H5.09635V12.1408H11.9323Z" fill="#1C1C1C"/>
</svg>
