<svg width="88" height="89" viewBox="0 0 88 89" fill="none" xmlns="http://www.w3.org/2000/svg">
<path fill-rule="evenodd" clip-rule="evenodd" d="M76.8218 15.2841C74.0911 12.2331 69.4153 11.9836 66.3781 14.7268C63.341 17.47 63.0926 22.1671 65.8234 25.2181C70.421 30.3548 73.2096 37.1319 73.2096 44.5807C73.2096 55.598 67.0881 65.179 58.0754 70.0785C60.7533 71.3186 62.8883 73.6933 63.7299 76.7734C64.4398 79.3717 64.1031 82.0103 62.9764 84.2368C77.7665 77.221 88.0001 62.1014 88.0001 44.5807C88.0001 33.3236 83.7658 23.0423 76.8218 15.2841Z" fill="#1C1C1C"/>
<path d="M27.4731 20.7968C32.1418 17.5254 37.8113 15.6079 43.9489 15.6079C50.0864 15.6079 55.756 17.5254 60.4247 20.7968C60.5353 20.8743 60.6472 20.9483 60.7605 21.0189C60.5344 17.9209 61.6863 14.7547 64.1637 12.5171C65.9281 10.9235 68.0874 10.0513 70.2832 9.88134C69.8824 9.41001 69.416 8.98173 68.8862 8.61056C61.816 3.65643 53.2092 0.750061 43.9489 0.750061C34.6885 0.750061 26.0818 3.65643 19.0115 8.61056C15.6617 10.9578 14.8402 15.5886 17.1769 18.9537C19.5135 22.3189 24.1233 23.144 27.4731 20.7968Z" fill="#95A4FC"/>
<path fill-rule="evenodd" clip-rule="evenodd" d="M12.9046 14.1277C12.4342 14.4531 11.9941 14.8387 11.5955 15.2841C8.26362 19.0067 5.55412 23.3105 3.63689 28.0308C2.09392 31.8296 3.9087 36.1657 7.69031 37.7157C11.4719 39.2657 15.7883 37.4427 17.3313 33.6438C18.595 30.5327 20.3849 27.6862 22.594 25.2181C22.6317 25.176 22.6689 25.1335 22.7055 25.0907C19.6264 24.9279 16.6514 23.3911 14.7508 20.6538C13.3727 18.6691 12.7792 16.3699 12.9046 14.1277Z" fill="#B1E3FF"/>
<path fill-rule="evenodd" clip-rule="evenodd" d="M1.82164 35.1923C2.88156 37.5027 4.78259 39.4301 7.3123 40.467C10.0949 41.6075 13.0843 41.4436 15.6081 40.2591C15.3993 41.6652 15.2905 43.1079 15.2905 44.5807C15.2905 53.953 19.7205 62.2859 26.5918 67.5816C26.9573 67.7561 27.3134 67.9631 27.6562 68.2033C32.3249 71.4746 37.9944 73.3922 44.132 73.3922C46.793 73.3922 49.3585 73.0321 51.7883 72.3622C55.727 71.2762 59.7962 73.6033 60.8772 77.5599C61.9582 81.5164 59.6417 85.6042 55.7031 86.6901C52.0097 87.7085 48.1279 88.25 44.132 88.25C41.4319 88.25 38.7874 88.003 36.2204 87.5301C36.275 87.595 36.3304 87.6592 36.3865 87.7227C15.9841 84.051 0.5 66.1324 0.5 44.5807C0.5 42.152 0.697358 39.7641 1.0783 37.4337C1.20975 36.6296 1.46515 35.877 1.82164 35.1923Z" fill="#BAEDBD"/>
</svg>
