<svg width="13" height="12" viewBox="0 0 13 12" fill="none" xmlns="http://www.w3.org/2000/svg">
<path d="M11.0472 10.6348C10.9791 10.7018 10.8875 10.7394 10.792 10.7396C10.6952 10.7392 10.6022 10.7017 10.5322 10.6348L8.56348 8.66146C7.73432 9.35791 6.6683 9.70736 5.58775 9.63694C4.5072 9.56652 3.49555 9.08166 2.7638 8.28349C2.03204 7.48532 1.63668 6.43546 1.66017 5.35287C1.68366 4.27028 2.12418 3.23856 2.88987 2.47287C3.65555 1.70719 4.68727 1.26667 5.76986 1.24318C6.85245 1.21969 7.90231 1.61505 8.70048 2.34681C9.49865 3.07856 9.98351 4.09021 10.0539 5.17076C10.1244 6.2513 9.7749 7.31732 9.07845 8.14648L11.0472 10.1152C11.0816 10.1492 11.109 10.1896 11.1277 10.2342C11.1463 10.2788 11.156 10.3267 11.156 10.375C11.156 10.4233 11.1463 10.4712 11.1277 10.5158C11.109 10.5604 11.0816 10.6008 11.0472 10.6348ZM5.87012 8.91667C6.55514 8.91667 7.22478 8.71353 7.79436 8.33295C8.36393 7.95238 8.80786 7.41144 9.07001 6.77856C9.33216 6.14569 9.40075 5.44928 9.26711 4.77742C9.13347 4.10556 8.80359 3.48842 8.31921 3.00403C7.83483 2.51965 7.21768 2.18978 6.54582 2.05613C5.87396 1.92249 5.17756 1.99108 4.54468 2.25323C3.9118 2.51538 3.37087 2.95931 2.99029 3.52888C2.60971 4.09846 2.40657 4.7681 2.40657 5.45312C2.40778 6.37134 2.77308 7.25161 3.42235 7.90089C4.07163 8.55017 4.9519 8.91546 5.87012 8.91667Z" fill="#1C1C1C" fill-opacity="0.2"/>
</svg>
