<svg width="15" height="15" viewBox="0 0 15 15" fill="none" xmlns="http://www.w3.org/2000/svg">
<path d="M12.844 3.27677V4.64396H1.90649V3.27677C1.90649 3.15591 1.95451 3.03999 2.03997 2.95452C2.12544 2.86906 2.24136 2.82104 2.36222 2.82104H12.3883C12.5091 2.82104 12.625 2.86906 12.7105 2.95452C12.796 3.03999 12.844 3.15591 12.844 3.27677Z" fill="#1C1C1C" fill-opacity="0.3"/>
<path d="M12.3882 2.3653H2.36214C2.12041 2.3653 1.88858 2.46132 1.71764 2.63226C1.54671 2.80319 1.45068 3.03502 1.45068 3.27675V11.4799C1.45068 11.7216 1.54671 11.9534 1.71764 12.1244C1.88858 12.2953 2.12041 12.3913 2.36214 12.3913H12.3882C12.6299 12.3913 12.8618 12.2953 13.0327 12.1244C13.2036 11.9534 13.2996 11.7216 13.2996 11.4799V3.27675C13.2996 3.03502 13.2036 2.80319 13.0327 2.63226C12.8618 2.46132 12.6299 2.3653 12.3882 2.3653ZM12.3882 3.27675V4.18821H2.36214V3.27675H12.3882ZM12.3882 11.4799H2.36214V5.09967H12.3882V11.4799ZM10.1095 6.46686C10.1095 7.19206 9.82145 7.88756 9.30866 8.40035C8.79586 8.91315 8.10036 9.20123 7.37516 9.20123C6.64996 9.20123 5.95446 8.91315 5.44167 8.40035C4.92887 7.88756 4.64079 7.19206 4.64079 6.46686C4.64079 6.34599 4.6888 6.23007 4.77427 6.14461C4.85973 6.05914 4.97565 6.01113 5.09652 6.01113C5.21738 6.01113 5.3333 6.05914 5.41877 6.14461C5.50423 6.23007 5.55225 6.34599 5.55225 6.46686C5.55225 6.95033 5.7443 7.41399 6.08617 7.75585C6.42803 8.09772 6.8917 8.28977 7.37516 8.28977C7.85863 8.28977 8.3223 8.09772 8.66416 7.75585C9.00602 7.41399 9.19808 6.95033 9.19808 6.46686C9.19808 6.34599 9.24609 6.23007 9.33156 6.14461C9.41703 6.05914 9.53294 6.01113 9.65381 6.01113C9.77468 6.01113 9.89059 6.05914 9.97606 6.14461C10.0615 6.23007 10.1095 6.34599 10.1095 6.46686Z" fill="#1C1C1C"/>
</svg>
