<svg width="16" height="16" viewBox="0 0 16 16" fill="none" xmlns="http://www.w3.org/2000/svg">
<path d="M5.92961 3.44269V12.5573H3.19523C3.07436 12.5573 2.95845 12.5093 2.87298 12.4238C2.78752 12.3383 2.7395 12.2224 2.7395 12.1015V3.89842C2.7395 3.77755 2.78752 3.66163 2.87298 3.57617C2.95845 3.4907 3.07436 3.44269 3.19523 3.44269H5.92961Z" fill="#1C1C1C" fill-opacity="0.1"/>
<path d="M13.2214 2.98694H3.19539C2.95366 2.98694 2.72183 3.08297 2.5509 3.2539C2.37996 3.42483 2.28394 3.65666 2.28394 3.8984V12.1015C2.28394 12.3433 2.37996 12.5751 2.5509 12.746C2.72183 12.917 2.95366 13.013 3.19539 13.013H13.2214C13.4632 13.013 13.695 12.917 13.8659 12.746C14.0369 12.5751 14.1329 12.3433 14.1329 12.1015V3.8984C14.1329 3.65666 14.0369 3.42483 13.8659 3.2539C13.695 3.08297 13.4632 2.98694 13.2214 2.98694ZM3.19539 9.36715H4.10685C4.22772 9.36715 4.34364 9.31913 4.4291 9.23367C4.51457 9.1482 4.56258 9.03228 4.56258 8.91142C4.56258 8.79055 4.51457 8.67463 4.4291 8.58917C4.34364 8.5037 4.22772 8.45569 4.10685 8.45569H3.19539V7.54423H4.10685C4.22772 7.54423 4.34364 7.49622 4.4291 7.41075C4.51457 7.32528 4.56258 7.20937 4.56258 7.0885C4.56258 6.96763 4.51457 6.85172 4.4291 6.76625C4.34364 6.68079 4.22772 6.63277 4.10685 6.63277H3.19539V5.72131H4.10685C4.22772 5.72131 4.34364 5.6733 4.4291 5.58783C4.51457 5.50237 4.56258 5.38645 4.56258 5.26558C4.56258 5.14472 4.51457 5.0288 4.4291 4.94334C4.34364 4.85787 4.22772 4.80986 4.10685 4.80986H3.19539V3.8984H5.47404V12.1015H3.19539V9.36715ZM13.2214 12.1015H6.3855V3.8984H13.2214V12.1015Z" fill="#1C1C1C"/>
</svg>
