<svg width="16" height="16" viewBox="0 0 16 16" fill="none" xmlns="http://www.w3.org/2000/svg">
<path d="M5.92936 3.23438V12.349H3.19499C3.07412 12.349 2.9582 12.3009 2.87274 12.2155C2.78727 12.13 2.73926 12.0141 2.73926 11.8932V3.6901C2.73926 3.56924 2.78727 3.45332 2.87274 3.36786C2.9582 3.28239 3.07412 3.23437 3.19499 3.23438H5.92936Z" fill="#1C1C1C" fill-opacity="0.1"/>
<path d="M13.2212 2.77863H3.19515C2.95342 2.77863 2.72158 2.87465 2.55065 3.04559C2.37972 3.21652 2.28369 3.44835 2.28369 3.69008V11.8932C2.28369 12.1349 2.37972 12.3668 2.55065 12.5377C2.72158 12.7086 2.95342 12.8047 3.19515 12.8047H13.2212C13.4629 12.8047 13.6948 12.7086 13.8657 12.5377C14.0366 12.3668 14.1327 12.1349 14.1327 11.8932V3.69008C14.1327 3.44835 14.0366 3.21652 13.8657 3.04559C13.6948 2.87465 13.4629 2.77863 13.2212 2.77863ZM3.19515 9.15883H4.10661C4.22748 9.15883 4.34339 9.11082 4.42886 9.02535C4.51432 8.93989 4.56234 8.82397 4.56234 8.7031C4.56234 8.58224 4.51432 8.46632 4.42886 8.38086C4.34339 8.29539 4.22748 8.24738 4.10661 8.24738H3.19515V7.33592H4.10661C4.22748 7.33592 4.34339 7.2879 4.42886 7.20244C4.51432 7.11697 4.56234 7.00106 4.56234 6.88019C4.56234 6.75932 4.51432 6.6434 4.42886 6.55794C4.34339 6.47247 4.22748 6.42446 4.10661 6.42446H3.19515V5.513H4.10661C4.22748 5.513 4.34339 5.46499 4.42886 5.37952C4.51432 5.29405 4.56234 5.17814 4.56234 5.05727C4.56234 4.9364 4.51432 4.82049 4.42886 4.73502C4.34339 4.64956 4.22748 4.60154 4.10661 4.60154H3.19515V3.69008H5.4738V11.8932H3.19515V9.15883ZM13.2212 11.8932H6.38525V3.69008H13.2212V11.8932Z" fill="#1C1C1C"/>
</svg>
