<svg width="55" height="16" viewBox="0 0 55 16" fill="none" xmlns="http://www.w3.org/2000/svg">
<path d="M47.5903 8.47921L47.5903 4.83337H46.5625V8.47921C46.5625 9.91745 47.7129 11.0834 49.1319 11.0834C50.551 11.0834 51.7014 9.91745 51.7014 8.47921L51.7014 4.83337H50.6736L50.6736 8.47921C50.6736 9.34215 49.9834 10.0417 49.1319 10.0417C48.2805 10.0417 47.5903 9.34215 47.5903 8.47921Z" fill="#BFC7EF"/>
<path d="M53.2431 4.83337V11.0834H54.2708V4.83337H53.2431Z" fill="#BFC7EF"/>
<path d="M21.768 10.6134C21.3403 10.9309 20.7655 11.0834 20.0437 11.0834C19.6026 11.0834 19.2016 11.0199 18.8407 10.9055C18.4798 10.7912 18.1188 10.6388 17.7847 10.4355L18.199 9.53358C18.5332 9.74953 18.8407 9.88927 19.1347 9.97819C19.4288 10.0671 19.7229 10.1179 20.0036 10.1179C20.418 10.1179 20.7254 10.0544 20.9527 9.91467C21.1665 9.77494 21.2735 9.58439 21.2735 9.33033C21.2735 9.05085 21.1532 8.8349 20.8992 8.69516C20.6452 8.55543 20.3244 8.41569 19.9368 8.27595C19.362 8.0727 18.9075 7.84404 18.5733 7.58998C18.2258 7.33591 18.052 6.96752 18.0386 6.4848C18.0253 5.96396 18.2258 5.55746 18.6402 5.26528C19.0545 4.97311 19.5892 4.83337 20.2576 4.83337C20.5917 4.83337 20.9126 4.87148 21.2334 4.96041C21.5542 5.04933 21.8616 5.17636 22.1423 5.35421L21.7279 6.21803C21.474 6.07829 21.2334 5.97667 21.0061 5.90045C20.7655 5.82423 20.5115 5.78612 20.2576 5.78612C19.9234 5.78612 19.6561 5.83693 19.4555 5.95126C19.255 6.06559 19.1615 6.24343 19.1615 6.47209C19.1615 6.72616 19.2951 6.91671 19.5491 7.04374C19.8031 7.17077 20.1373 7.31051 20.5249 7.46295C21.0997 7.6662 21.5542 7.89486 21.9017 8.16163C22.2359 8.42839 22.4097 8.79679 22.4097 9.29222C22.4097 9.86386 22.1958 10.2958 21.768 10.6134Z" fill="#4F507F"/>
<path d="M28.0624 7.43754V11.0834H29.0902V7.43754C29.0902 5.9993 27.9398 4.83337 26.5208 4.83337C25.1017 4.83337 23.9513 5.9993 23.9513 7.43754V11.0834H24.9791V7.43754C24.9791 6.5746 25.6693 5.87504 26.5208 5.87504C27.3722 5.87504 28.0624 6.5746 28.0624 7.43754Z" fill="#4F507F"/>
<path fill-rule="evenodd" clip-rule="evenodd" d="M36.7986 7.95837C36.7986 9.68426 35.4181 11.0834 33.7152 11.0834C32.0123 11.0834 30.6319 9.68426 30.6319 7.95837C30.6319 6.23248 32.0123 4.83337 33.7152 4.83337C35.4181 4.83337 36.7986 6.23248 36.7986 7.95837ZM35.7708 7.95837C35.7708 9.10897 34.8505 10.0417 33.7152 10.0417C32.58 10.0417 31.6597 9.10897 31.6597 7.95837C31.6597 6.80778 32.58 5.87504 33.7152 5.87504C34.8505 5.87504 35.7708 6.80778 35.7708 7.95837Z" fill="#4F507F"/>
<path d="M37.8263 4.83337L38.795 10.2248C38.9959 11.3432 40.4693 11.3794 40.7174 10.2721L41.2916 7.1989C41.3126 7.08601 41.4619 7.08831 41.4801 7.20181L41.9632 10.2264C42.1777 11.343 43.6533 11.3574 43.8865 10.2452L45.0208 4.83337H44.0232L43.0251 10.0211C43.0037 10.1326 42.8566 10.1311 42.837 10.0192L41.9304 4.83337H40.9263L39.8646 10.0363C39.8419 10.1475 39.695 10.1442 39.6765 10.0322L38.8192 4.83337H37.8263Z" fill="#4F507F"/>
<path d="M12.5431 5.77087C13.7351 5.77087 14.7014 6.75025 14.7014 7.95837C14.7014 9.1665 13.7351 10.1459 12.5431 10.1459L2.47083 10.1459C1.27882 10.1459 0.3125 9.1665 0.3125 7.95837C0.3125 6.75025 1.27882 5.77087 2.47083 5.77087L12.5431 5.77087Z" fill="#7094F4"/>
<path d="M5.34863 2.85413C5.34863 1.646 6.31495 0.666626 7.50697 0.666626C8.69898 0.666626 9.6653 1.646 9.6653 2.85413V13.0625C9.6653 14.2706 8.69898 15.25 7.50697 15.25C6.31495 15.25 5.34863 14.2706 5.34863 13.0625V2.85413Z" fill="#ACC3FF"/>
<path d="M12.5946 10.0211C13.4375 10.8754 13.4375 12.2605 12.5946 13.1148C11.7517 13.9691 10.3851 13.9691 9.54214 13.1148L2.41978 5.89616C1.57687 5.04186 1.57687 3.65677 2.41978 2.80247C3.26269 1.94817 4.62931 1.94817 5.47222 2.80247L12.5946 10.0211Z" fill="#83A5FF"/>
<path d="M9.54214 2.80247C10.3851 1.94817 11.7517 1.94817 12.5946 2.80247C13.4375 3.65677 13.4375 5.04186 12.5946 5.89616L5.47222 13.1148C4.62931 13.9691 3.26269 13.9691 2.41978 13.1148C1.57687 12.2605 1.57687 10.8754 2.41978 10.0211L9.54214 2.80247Z" fill="#8CBAFF"/>
<path fill-rule="evenodd" clip-rule="evenodd" d="M7.50681 2.85413C7.34788 2.85413 7.21904 2.98471 7.21904 3.14579V6.97249C7.21904 7.06084 7.21904 7.10501 7.2018 7.12547C7.18684 7.14321 7.16441 7.15263 7.14145 7.1508C7.11499 7.14869 7.08417 7.11746 7.02253 7.05498L4.35273 4.3491C4.24034 4.2352 4.05813 4.2352 3.94575 4.3491C3.83336 4.46301 3.83336 4.64768 3.94575 4.76158L6.61555 7.46746C6.67719 7.52993 6.70801 7.56117 6.71009 7.58799C6.7119 7.61126 6.70261 7.634 6.68509 7.64916C6.66491 7.66663 6.62133 7.66663 6.53416 7.66663H2.75848C2.59955 7.66663 2.4707 7.79721 2.4707 7.95829C2.4707 8.11938 2.59955 8.24996 2.75848 8.24996H6.53416C6.62133 8.24996 6.66491 8.24996 6.68509 8.26743C6.70261 8.28259 6.7119 8.30533 6.71009 8.3286C6.70801 8.35541 6.67719 8.38665 6.61555 8.44912L3.94575 11.155C3.83336 11.2689 3.83336 11.4536 3.94575 11.5675C4.05813 11.6814 4.24034 11.6814 4.35273 11.5675L7.02253 8.8616C7.08417 8.79913 7.11499 8.7679 7.14145 8.76578C7.16441 8.76395 7.18684 8.77337 7.2018 8.79112C7.21904 8.81158 7.21904 8.85575 7.21904 8.9441V12.7708C7.21904 12.9319 7.34788 13.0625 7.50681 13.0625C7.66575 13.0625 7.79459 12.9319 7.79459 12.7708V8.9441C7.79459 8.85575 7.79459 8.81157 7.81183 8.79112C7.82679 8.77337 7.84922 8.76395 7.87218 8.76578C7.89864 8.76789 7.92946 8.79913 7.9911 8.8616L10.6609 11.5675C10.7733 11.6814 10.9555 11.6814 11.0679 11.5675C11.1803 11.4536 11.1803 11.2689 11.0679 11.155L8.39808 8.44912C8.33644 8.38665 8.30562 8.35541 8.30354 8.3286C8.30173 8.30533 8.31103 8.28259 8.32854 8.26743C8.34872 8.24996 8.39231 8.24996 8.47948 8.24996H12.2551C12.4141 8.24996 12.5429 8.11938 12.5429 7.95829C12.5429 7.79721 12.4141 7.66663 12.2551 7.66663H8.47948C8.39231 7.66663 8.34872 7.66663 8.32854 7.64916C8.31103 7.634 8.30173 7.61126 8.30354 7.58799C8.30562 7.56117 8.33644 7.52994 8.39808 7.46746L11.0679 4.76158C11.1803 4.64768 11.1803 4.46301 11.0679 4.3491C10.9555 4.2352 10.7733 4.2352 10.6609 4.3491L7.9911 7.05499C7.92946 7.11746 7.89864 7.14869 7.87218 7.1508C7.84922 7.15264 7.82679 7.14322 7.81183 7.12547C7.79459 7.10501 7.79459 7.06084 7.79459 6.97249V3.14579C7.79459 2.98471 7.66575 2.85413 7.50681 2.85413Z" fill="white"/>
</svg>
