<svg width="16" height="16" viewBox="0 0 16 16" fill="none" xmlns="http://www.w3.org/2000/svg">
<path d="M11.4059 9.12225C11.3434 9.17711 11.297 9.24787 11.2715 9.32701C11.246 9.40615 11.2425 9.49071 11.2612 9.57171L12.0314 12.9065C12.0517 12.9936 12.046 13.0848 12.0149 13.1686C11.9838 13.2525 11.9287 13.3254 11.8565 13.3781C11.7843 13.4309 11.6981 13.4613 11.6088 13.4654C11.5194 13.4696 11.4308 13.4474 11.354 13.4015L8.44306 11.6356C8.37233 11.5926 8.29114 11.5698 8.20836 11.5698C8.12558 11.5698 8.04439 11.5926 7.97366 11.6356L5.06269 13.4015C4.98588 13.4474 4.89729 13.4696 4.80794 13.4654C4.71859 13.4613 4.63244 13.4309 4.56023 13.3781C4.48801 13.3254 4.43292 13.2525 4.40183 13.1686C4.37074 13.0848 4.36501 12.9936 4.38536 12.9065L5.15555 9.57171C5.17427 9.49071 5.1707 9.40615 5.14522 9.32701C5.11975 9.24787 5.07331 9.17711 5.01085 9.12225L2.44111 6.88063C2.37241 6.82224 2.32257 6.74478 2.2979 6.65806C2.27324 6.57133 2.27485 6.47924 2.30254 6.39343C2.33022 6.30763 2.38274 6.23196 2.45345 6.17601C2.52415 6.12006 2.60986 6.08634 2.69973 6.07912L6.08694 5.78631C6.16958 5.77895 6.24864 5.74917 6.3156 5.70018C6.38256 5.65119 6.43488 5.58485 6.46691 5.50832L7.79023 2.35467C7.82558 2.27313 7.88399 2.20371 7.95828 2.15495C8.03257 2.10618 8.1195 2.0802 8.20836 2.0802C8.29723 2.0802 8.38415 2.10618 8.45845 2.15495C8.53274 2.20371 8.59115 2.27313 8.62649 2.35467L9.94982 5.50832C9.98185 5.58485 10.0342 5.65119 10.1011 5.70018C10.1681 5.74917 10.2471 5.77895 10.3298 5.78631L13.717 6.07912C13.8069 6.08634 13.8926 6.12006 13.9633 6.17601C14.034 6.23196 14.0865 6.30763 14.1142 6.39343C14.1419 6.47924 14.1435 6.57133 14.1188 6.65806C14.0942 6.74478 14.0443 6.82224 13.9756 6.88063L11.4059 9.12225Z" fill="#1C1C1C" fill-opacity="0.1"/>
<path d="M14.5429 6.2506C14.4877 6.08049 14.3837 5.93038 14.2438 5.81895C14.1039 5.70753 13.9343 5.63972 13.7562 5.62397L10.373 5.3323L9.04681 2.17866C8.97776 2.01318 8.8613 1.87183 8.71208 1.77241C8.56287 1.67299 8.38757 1.61993 8.20826 1.61993C8.02896 1.61993 7.85366 1.67299 7.70445 1.77241C7.55523 1.87183 7.43877 2.01318 7.36972 2.17866L6.04754 5.3323L2.66033 5.62568C2.48148 5.64071 2.31104 5.70821 2.1704 5.81972C2.02976 5.93122 1.92516 6.08177 1.86974 6.25248C1.81432 6.4232 1.81053 6.60647 1.85885 6.77933C1.90717 6.95218 2.00545 7.10693 2.14137 7.22415L4.71111 9.46976L3.94093 12.8046C3.9002 12.9791 3.91183 13.1617 3.97434 13.3297C4.03685 13.4976 4.14749 13.6434 4.29241 13.7488C4.43733 13.8542 4.61011 13.9146 4.78914 13.9223C4.96817 13.93 5.14552 13.8848 5.299 13.7923L8.20428 12.0264L11.1158 13.7923C11.2693 13.8848 11.4466 13.93 11.6257 13.9223C11.8047 13.9146 11.9775 13.8542 12.1224 13.7488C12.2673 13.6434 12.378 13.4976 12.4405 13.3297C12.503 13.1617 12.5146 12.9791 12.4739 12.8046L11.7043 9.46634L14.2734 7.22415C14.4093 7.10652 14.5074 6.95134 14.5554 6.77812C14.6033 6.60489 14.599 6.42136 14.5429 6.2506ZM13.6759 6.53543L11.1067 8.77762C10.9817 8.88638 10.8886 9.02719 10.8377 9.18487C10.7867 9.34256 10.7796 9.51117 10.8173 9.67255L11.5892 13.013L8.67994 11.2471C8.53801 11.1607 8.37502 11.1149 8.20883 11.1149C8.04265 11.1149 7.87966 11.1607 7.73772 11.2471L4.83245 13.013L5.59921 9.67483C5.6369 9.51345 5.62987 9.34484 5.57888 9.18715C5.52789 9.02946 5.43487 8.88866 5.30983 8.7799L2.73951 6.53885C2.73931 6.53714 2.73931 6.53542 2.73951 6.53372L6.12558 6.24091C6.2909 6.22634 6.4491 6.16691 6.58312 6.06903C6.71714 5.97115 6.82189 5.83854 6.88608 5.68549L8.20826 2.53584L9.52988 5.68549C9.59406 5.83854 9.69882 5.97115 9.83284 6.06903C9.96686 6.16691 10.1251 6.22634 10.2904 6.24091L13.677 6.53372C13.677 6.53372 13.677 6.53714 13.677 6.53771L13.6759 6.53543Z" fill="#1C1C1C"/>
</svg>
