<svg width="15" height="16" viewBox="0 0 15 16" fill="none" xmlns="http://www.w3.org/2000/svg">
<path d="M10.6483 7.79167C10.6483 8.42261 10.4612 9.03938 10.1106 9.56399C9.76011 10.0886 9.26189 10.4975 8.67897 10.7389C8.09606 10.9804 7.45463 11.0436 6.83581 10.9205C6.21699 10.7974 5.64857 10.4936 5.20243 10.0474C4.75628 9.60127 4.45246 9.03284 4.32936 8.41403C4.20627 7.79521 4.26945 7.15378 4.5109 6.57087C4.75235 5.98795 5.16124 5.48972 5.68585 5.13919C6.21046 4.78866 6.82723 4.60156 7.45817 4.60156C8.30424 4.60156 9.11566 4.93766 9.71392 5.53592C10.3122 6.13418 10.6483 6.9456 10.6483 7.79167Z" fill="#1C1C1C" fill-opacity="0.1"/>
<path d="M7.00228 2.77867V1.41148C7.00228 1.29061 7.05029 1.1747 7.13576 1.08923C7.22122 1.00376 7.33714 0.95575 7.45801 0.95575C7.57887 0.95575 7.69479 1.00376 7.78026 1.08923C7.86572 1.1747 7.91374 1.29061 7.91374 1.41148V2.77867C7.91374 2.89953 7.86572 3.01545 7.78026 3.10092C7.69479 3.18638 7.57887 3.2344 7.45801 3.2344C7.33714 3.2344 7.22122 3.18638 7.13576 3.10092C7.05029 3.01545 7.00228 2.89953 7.00228 2.77867ZM11.1038 7.79169C11.1038 8.51276 10.89 9.21765 10.4894 9.8172C10.0888 10.4168 9.5194 10.8841 8.85321 11.16C8.18702 11.4359 7.45396 11.5081 6.74674 11.3675C6.03952 11.2268 5.38989 10.8796 4.88001 10.3697C4.37014 9.8598 4.0229 9.21018 3.88223 8.50295C3.74155 7.79573 3.81375 7.06268 4.0897 6.39649C4.36564 5.7303 4.83294 5.1609 5.43249 4.76029C6.03205 4.35968 6.73693 4.14585 7.45801 4.14585C8.42462 4.14691 9.35134 4.53136 10.0348 5.21486C10.7183 5.89836 11.1028 6.82508 11.1038 7.79169ZM10.1924 7.79169C10.1924 7.25088 10.032 6.72222 9.73156 6.27255C9.4311 5.82288 9.00405 5.47241 8.50441 5.26545C8.00477 5.0585 7.45497 5.00435 6.92456 5.10985C6.39414 5.21536 5.90692 5.47578 5.52451 5.85819C5.1421 6.2406 4.88168 6.72782 4.77617 7.25824C4.67067 7.78865 4.72482 8.33845 4.93177 8.83809C5.13873 9.33773 5.4892 9.76478 5.93887 10.0652C6.38854 10.3657 6.9172 10.5261 7.45801 10.5261C8.18298 10.5253 8.87804 10.237 9.39067 9.72435C9.9033 9.21172 10.1916 8.51666 10.1924 7.79169ZM3.48975 4.46828C3.57526 4.5538 3.69124 4.60184 3.81217 4.60184C3.93311 4.60184 4.04909 4.5538 4.1346 4.46828C4.22012 4.38277 4.26816 4.26679 4.26816 4.14585C4.26816 4.02492 4.22012 3.90894 4.1346 3.82343L3.22314 2.91197C3.13763 2.82645 3.02165 2.77841 2.90072 2.77841C2.77978 2.77841 2.6638 2.82645 2.57829 2.91197C2.49277 2.99748 2.44473 3.11346 2.44473 3.2344C2.44473 3.35533 2.49277 3.47131 2.57829 3.55682L3.48975 4.46828ZM3.48975 11.1151L2.57829 12.0265C2.49277 12.1121 2.44473 12.228 2.44473 12.349C2.44473 12.4699 2.49277 12.5859 2.57829 12.6714C2.6638 12.7569 2.77978 12.805 2.90072 12.805C3.02165 12.805 3.13763 12.7569 3.22314 12.6714L4.1346 11.7599C4.17694 11.7176 4.21053 11.6673 4.23345 11.612C4.25636 11.5567 4.26816 11.4974 4.26816 11.4375C4.26816 11.3776 4.25636 11.3183 4.23345 11.263C4.21053 11.2077 4.17694 11.1574 4.1346 11.1151C4.09226 11.0727 4.04199 11.0392 3.98667 11.0162C3.93135 10.9933 3.87205 10.9815 3.81217 10.9815C3.75229 10.9815 3.693 10.9933 3.63768 11.0162C3.58235 11.0392 3.53209 11.0727 3.48975 11.1151ZM11.1038 4.60158C11.1637 4.60163 11.223 4.58988 11.2783 4.56701C11.3336 4.54414 11.3839 4.51059 11.4263 4.46828L12.3377 3.55682C12.4232 3.47131 12.4713 3.35533 12.4713 3.2344C12.4713 3.11346 12.4232 2.99748 12.3377 2.91197C12.2522 2.82645 12.1362 2.77841 12.0153 2.77841C11.8944 2.77841 11.7784 2.82645 11.6929 2.91197L10.7814 3.82343C10.7176 3.88716 10.6741 3.9684 10.6565 4.05685C10.6389 4.1453 10.6479 4.23698 10.6825 4.3203C10.717 4.40362 10.7755 4.47482 10.8505 4.52489C10.9255 4.57496 11.0137 4.60165 11.1038 4.60158ZM11.4263 11.1151C11.3408 11.0296 11.2248 10.9815 11.1038 10.9815C10.9829 10.9815 10.8669 11.0296 10.7814 11.1151C10.6959 11.2006 10.6479 11.3166 10.6479 11.4375C10.6479 11.5585 10.6959 11.6744 10.7814 11.7599L11.6929 12.6714C11.7352 12.7137 11.7855 12.7473 11.8408 12.7703C11.8961 12.7932 11.9554 12.805 12.0153 12.805C12.0752 12.805 12.1345 12.7932 12.1898 12.7703C12.2451 12.7473 12.2954 12.7137 12.3377 12.6714C12.3801 12.6291 12.4137 12.5788 12.4366 12.5235C12.4595 12.4682 12.4713 12.4089 12.4713 12.349C12.4713 12.2891 12.4595 12.2298 12.4366 12.1745C12.4137 12.1192 12.3801 12.0689 12.3377 12.0265L11.4263 11.1151ZM2.90072 7.79169C2.90072 7.67082 2.8527 7.5549 2.76724 7.46944C2.68177 7.38397 2.56585 7.33596 2.44499 7.33596H1.0778C0.956933 7.33596 0.841016 7.38397 0.75555 7.46944C0.670084 7.5549 0.62207 7.67082 0.62207 7.79169C0.62207 7.91255 0.670084 8.02847 0.75555 8.11394C0.841016 8.1994 0.956933 8.24742 1.0778 8.24742H2.44499C2.56585 8.24742 2.68177 8.1994 2.76724 8.11394C2.8527 8.02847 2.90072 7.91255 2.90072 7.79169ZM7.45801 12.349C7.33714 12.349 7.22122 12.397 7.13576 12.4825C7.05029 12.5679 7.00228 12.6838 7.00228 12.8047V14.1719C7.00228 14.2928 7.05029 14.4087 7.13576 14.4941C7.22122 14.5796 7.33714 14.6276 7.45801 14.6276C7.57887 14.6276 7.69479 14.5796 7.78026 14.4941C7.86572 14.4087 7.91374 14.2928 7.91374 14.1719V12.8047C7.91374 12.6838 7.86572 12.5679 7.78026 12.4825C7.69479 12.397 7.57887 12.349 7.45801 12.349ZM13.8382 7.33596H12.471C12.3502 7.33596 12.2342 7.38397 12.1488 7.46944C12.0633 7.5549 12.0153 7.67082 12.0153 7.79169C12.0153 7.91255 12.0633 8.02847 12.1488 8.11394C12.2342 8.1994 12.3502 8.24742 12.471 8.24742H13.8382C13.9591 8.24742 14.075 8.1994 14.1605 8.11394C14.2459 8.02847 14.2939 7.91255 14.2939 7.79169C14.2939 7.67082 14.2459 7.5549 14.1605 7.46944C14.075 7.38397 13.9591 7.33596 13.8382 7.33596Z" fill="#1C1C1C"/>
</svg>
