<svg width="15" height="15" viewBox="0 0 15 15" fill="none" xmlns="http://www.w3.org/2000/svg">
<path d="M9.65365 8.49495C9.65365 8.94563 9.52001 9.38618 9.26963 9.7609C9.01924 10.1356 8.66337 10.4277 8.247 10.6001C7.83063 10.7726 7.37247 10.8177 6.93046 10.7298C6.48845 10.6419 6.08243 10.4249 5.76375 10.1062C5.44508 9.78753 5.22806 9.38151 5.14014 8.9395C5.05222 8.49748 5.09734 8.03932 5.26981 7.62295C5.44227 7.20659 5.73433 6.85071 6.10905 6.60033C6.48377 6.34995 6.92433 6.21631 7.375 6.21631C7.97934 6.21631 8.55892 6.45638 8.98625 6.88371C9.41358 7.31104 9.65365 7.89062 9.65365 8.49495ZM3.72917 3.48193C3.36863 3.48193 3.01619 3.58885 2.71641 3.78915C2.41663 3.98946 2.18298 4.27416 2.04501 4.60725C1.90704 4.94034 1.87094 5.30687 1.94128 5.66048C2.01162 6.01409 2.18523 6.33891 2.44017 6.59385C2.69511 6.84879 3.01992 7.0224 3.37353 7.09274C3.72715 7.16308 4.09367 7.12698 4.42677 6.98901C4.75986 6.85103 5.04456 6.61739 5.24487 6.31761C5.44517 6.01783 5.55208 5.66539 5.55208 5.30485C5.55208 4.82138 5.36003 4.35772 5.01816 4.01585C4.6763 3.67399 4.21264 3.48193 3.72917 3.48193ZM11.0208 3.48193C10.6603 3.48193 10.3079 3.58885 10.0081 3.78915C9.7083 3.98946 9.47465 4.27416 9.33668 4.60725C9.19871 4.94034 9.16261 5.30687 9.23294 5.66048C9.30328 6.01409 9.4769 6.33891 9.73184 6.59385C9.98678 6.84879 10.3116 7.0224 10.6652 7.09274C11.0188 7.16308 11.3853 7.12698 11.7184 6.98901C12.0515 6.85103 12.3362 6.61739 12.5365 6.31761C12.7368 6.01783 12.8438 5.66539 12.8438 5.30485C12.8438 4.82138 12.6517 4.35772 12.3098 4.01585C11.968 3.67399 11.5043 3.48193 11.0208 3.48193Z" fill="#1C1C1C" fill-opacity="0.1"/>
<path d="M14.0286 8.85957C13.9807 8.89548 13.9262 8.92161 13.8682 8.93646C13.8103 8.95132 13.7499 8.9546 13.6907 8.94614C13.6314 8.93768 13.5744 8.91763 13.5229 8.88713C13.4714 8.85664 13.4265 8.81631 13.3906 8.76843C13.1159 8.39921 12.7583 8.09964 12.3467 7.89384C11.9351 7.68804 11.4809 7.58175 11.0208 7.58353C10.8999 7.58353 10.784 7.53552 10.6985 7.45005C10.613 7.36459 10.565 7.24867 10.565 7.1278C10.565 7.00694 10.613 6.89102 10.6985 6.80556C10.784 6.72009 10.8999 6.67207 11.0208 6.67207C11.2765 6.67205 11.527 6.60032 11.744 6.46503C11.961 6.32973 12.1357 6.1363 12.2482 5.9067C12.3608 5.6771 12.4067 5.42054 12.3808 5.16615C12.3548 4.91177 12.2581 4.66976 12.1015 4.46761C11.9449 4.26547 11.7347 4.11129 11.4949 4.02259C11.2551 3.93389 10.9952 3.91423 10.7447 3.96583C10.4943 4.01744 10.2633 4.13824 10.0781 4.31453C9.89287 4.49081 9.76079 4.71551 9.69687 4.96309C9.68191 5.02107 9.65567 5.07553 9.61966 5.12337C9.58365 5.17121 9.53857 5.21148 9.487 5.2419C9.43542 5.27232 9.37836 5.29228 9.31907 5.30064C9.25978 5.309 9.19942 5.30561 9.14145 5.29065C9.08347 5.27568 9.02901 5.24945 8.98117 5.21344C8.93333 5.17743 8.89306 5.13235 8.86264 5.08077C8.83222 5.0292 8.81226 4.97214 8.8039 4.91285C8.79554 4.85356 8.79893 4.7932 8.81389 4.73523C8.90262 4.3919 9.07025 4.07402 9.30345 3.80688C9.53665 3.53974 9.82898 3.33071 10.1572 3.19643C10.4854 3.06215 10.8404 3.00632 11.194 3.03338C11.5475 3.06044 11.8899 3.16965 12.1939 3.35232C12.4978 3.53499 12.7549 3.78607 12.9447 4.08559C13.1345 4.38512 13.2518 4.72481 13.2873 5.07764C13.3227 5.43047 13.2753 5.7867 13.1489 6.11799C13.0224 6.44928 12.8204 6.74649 12.5588 6.98596C13.1785 7.25427 13.7172 7.68004 14.1214 8.22098C14.1573 8.26898 14.1834 8.3236 14.1982 8.38169C14.213 8.43979 14.2161 8.50022 14.2075 8.55954C14.1989 8.61886 14.1786 8.6759 14.1479 8.72738C14.1172 8.77887 14.0767 8.82379 14.0286 8.85957ZM10.9592 12.3687C10.9911 12.4206 11.0122 12.4783 11.0213 12.5385C11.0304 12.5986 11.0275 12.66 11.0125 12.719C10.9975 12.778 10.9709 12.8334 10.9342 12.8819C10.8975 12.9304 10.8514 12.9711 10.7987 13.0016C10.746 13.032 10.6877 13.0516 10.6273 13.0591C10.567 13.0667 10.5057 13.0621 10.4471 13.0456C10.3885 13.0291 10.3339 13.001 10.2863 12.963C10.2388 12.925 10.1993 12.8779 10.1703 12.8244C9.88314 12.3384 9.47429 11.9357 8.98405 11.6559C8.49381 11.3762 7.9391 11.229 7.37464 11.229C6.81019 11.229 6.25548 11.3762 5.76524 11.6559C5.27499 11.9357 4.86615 12.3384 4.57903 12.8244C4.55054 12.8789 4.51133 12.927 4.46375 12.9659C4.41618 13.0048 4.36122 13.0337 4.30219 13.0509C4.24316 13.068 4.18128 13.073 4.12026 13.0656C4.05925 13.0582 4.00036 13.0385 3.94715 13.0077C3.89394 12.977 3.84749 12.9358 3.81062 12.8866C3.77374 12.8374 3.74719 12.7813 3.73257 12.7216C3.71795 12.6619 3.71555 12.5999 3.72553 12.5392C3.7355 12.4786 3.75764 12.4206 3.79062 12.3687C4.23245 11.6095 4.90613 11.0121 5.71266 10.6643C5.25882 10.3168 4.92529 9.83584 4.75893 9.289C4.59257 8.74217 4.60176 8.15695 4.7852 7.61561C4.96864 7.07427 5.31711 6.60402 5.78162 6.27096C6.24614 5.93791 6.80335 5.75879 7.37493 5.75879C7.94651 5.75879 8.50372 5.93791 8.96823 6.27096C9.43275 6.60402 9.78122 7.07427 9.96466 7.61561C10.1481 8.15695 10.1573 8.74217 9.99093 9.289C9.82457 9.83584 9.49103 10.3168 9.0372 10.6643C9.84373 11.0121 10.5174 11.6095 10.9592 12.3687ZM7.37493 10.3179C7.73547 10.3179 8.08791 10.211 8.38769 10.0107C8.68746 9.81039 8.92111 9.52569 9.05908 9.19259C9.19706 8.8595 9.23316 8.49297 9.16282 8.13936C9.09248 7.78575 8.91886 7.46093 8.66392 7.20599C8.40899 6.95106 8.08417 6.77744 7.73056 6.7071C7.37695 6.63676 7.01042 6.67286 6.67733 6.81084C6.34423 6.94881 6.05953 7.18246 5.85923 7.48223C5.65892 7.78201 5.55201 8.13445 5.55201 8.49499C5.55201 8.97846 5.74407 9.44212 6.08593 9.78399C6.42779 10.1259 6.89146 10.3179 7.37493 10.3179ZM4.18482 7.1278C4.18482 7.00694 4.13681 6.89102 4.05134 6.80556C3.96588 6.72009 3.84996 6.67207 3.7291 6.67207C3.47339 6.67205 3.22282 6.60032 3.00584 6.46503C2.78885 6.32973 2.61416 6.1363 2.50161 5.9067C2.38905 5.6771 2.34314 5.42054 2.36908 5.16615C2.39503 4.91177 2.4918 4.66976 2.64839 4.46761C2.80499 4.26547 3.01514 4.11129 3.25497 4.02259C3.49479 3.93389 3.75469 3.91423 4.00513 3.96583C4.25558 4.01744 4.48653 4.13824 4.67176 4.31453C4.85698 4.49081 4.98906 4.71551 5.05299 4.96309C5.0832 5.08018 5.1587 5.18047 5.26286 5.2419C5.36702 5.30333 5.49132 5.32086 5.60841 5.29065C5.7255 5.26043 5.82579 5.18494 5.88722 5.08077C5.94865 4.97661 5.96618 4.85232 5.93596 4.73523C5.84724 4.3919 5.6796 4.07402 5.4464 3.80688C5.2132 3.53974 4.92087 3.33071 4.59268 3.19643C4.26448 3.06215 3.90947 3.00632 3.55589 3.03338C3.20232 3.06044 2.85994 3.16965 2.55601 3.35232C2.25207 3.53499 1.99496 3.78607 1.80513 4.08559C1.61531 4.38512 1.49801 4.72481 1.46257 5.07764C1.42712 5.43047 1.47452 5.7867 1.60098 6.11799C1.72744 6.44928 1.92947 6.74649 2.19101 6.98596C1.57195 7.25452 1.03386 7.68028 0.630137 8.22098C0.557541 8.31768 0.52633 8.43925 0.54337 8.55896C0.56041 8.67866 0.624304 8.78669 0.720998 8.85929C0.817692 8.93189 0.939263 8.9631 1.05897 8.94606C1.17867 8.92902 1.28671 8.86512 1.3593 8.76843C1.63399 8.39921 1.99152 8.09964 2.40313 7.89384C2.81473 7.68804 3.26891 7.58175 3.7291 7.58353C3.84996 7.58353 3.96588 7.53552 4.05134 7.45005C4.13681 7.36459 4.18482 7.24867 4.18482 7.1278Z" fill="#1C1C1C"/>
</svg>
