<svg width="12" height="13" viewBox="0 0 12 13" fill="none" xmlns="http://www.w3.org/2000/svg">
<path d="M10.7734 10.1198C10.0793 8.91986 9.00972 8.05944 7.76148 7.65156C8.37891 7.284 8.85862 6.72391 9.12694 6.05733C9.39525 5.39074 9.43733 4.6545 9.24672 3.96168C9.05611 3.26886 8.64335 2.65777 8.07182 2.22224C7.50028 1.78672 6.80159 1.55084 6.08302 1.55084C5.36446 1.55084 4.66577 1.78672 4.09423 2.22224C3.5227 2.65777 3.10994 3.26886 2.91933 3.96168C2.72871 4.6545 2.7708 5.39074 3.03911 6.05733C3.30743 6.72391 3.78714 7.284 4.40457 7.65156C3.15633 8.05898 2.08674 8.9194 1.39266 10.1198C1.36721 10.1613 1.35032 10.2075 1.34301 10.2556C1.33569 10.3037 1.33809 10.3528 1.35006 10.4C1.36203 10.4472 1.38333 10.4915 1.41271 10.5304C1.44208 10.5692 1.47894 10.6017 1.5211 10.6261C1.56325 10.6504 1.60986 10.6661 1.65817 10.6722C1.70648 10.6782 1.75551 10.6745 1.80237 10.6613C1.84923 10.6481 1.89297 10.6256 1.93101 10.5952C1.96905 10.5649 2.00061 10.5272 2.02384 10.4844C2.88244 9.00052 4.40002 8.11458 6.08302 8.11458C7.76603 8.11458 9.28361 9.00052 10.1422 10.4844C10.1654 10.5272 10.197 10.5649 10.235 10.5952C10.2731 10.6256 10.3168 10.6481 10.3637 10.6613C10.4105 10.6745 10.4596 10.6782 10.5079 10.6722C10.5562 10.6661 10.6028 10.6504 10.645 10.6261C10.6871 10.6017 10.724 10.5692 10.7533 10.5304C10.7827 10.4915 10.804 10.4472 10.816 10.4C10.828 10.3528 10.8304 10.3037 10.823 10.2556C10.8157 10.2075 10.7988 10.1613 10.7734 10.1198ZM3.53094 4.83333C3.53094 4.32858 3.68062 3.83516 3.96104 3.41547C4.24147 2.99578 4.64005 2.66868 5.10638 2.47551C5.57272 2.28235 6.08586 2.23181 6.58091 2.33029C7.07597 2.42876 7.5307 2.67182 7.88762 3.02874C8.24454 3.38565 8.4876 3.84039 8.58607 4.33545C8.68454 4.8305 8.634 5.34364 8.44084 5.80997C8.24768 6.2763 7.92057 6.67489 7.50089 6.95531C7.0812 7.23574 6.58778 7.38542 6.08302 7.38542C5.40639 7.38469 4.75768 7.11558 4.27923 6.63713C3.80078 6.15868 3.53167 5.50996 3.53094 4.83333Z" fill="#1C1C1C"/>
</svg>
